<svg width="11" height="11" viewBox="0 0 11 11" fill="none" xmlns="http://www.w3.org/2000/svg">
<path d="M7.79167 1.60505C7.79167 1.54427 7.76752 1.48598 7.72454 1.443C7.68157 1.40002 7.62328 1.37588 7.5625 1.37588H6.41667C5.83968 1.34714 5.27477 1.54793 4.84537 1.93439C4.41597 2.32086 4.15698 2.86156 4.125 3.43838V4.67588H2.97917C2.91839 4.67588 2.8601 4.70002 2.81712 4.743C2.77414 4.78598 2.75 4.84427 2.75 4.90505V6.09671C2.75 6.15749 2.77414 6.21578 2.81712 6.25876C2.8601 6.30174 2.91839 6.32588 2.97917 6.32588H4.125V9.39671C4.125 9.45749 4.14914 9.51578 4.19212 9.55876C4.2351 9.60174 4.29339 9.62588 4.35417 9.62588H5.72917C5.78994 9.62588 5.84823 9.60174 5.89121 9.55876C5.93419 9.51578 5.95833 9.45749 5.95833 9.39671V6.32588H7.15917C7.21013 6.32661 7.25988 6.31033 7.30055 6.27962C7.34123 6.24891 7.3705 6.20551 7.38375 6.1563L7.71375 4.96463C7.72287 4.93077 7.72409 4.89527 7.71733 4.86086C7.71057 4.82645 7.696 4.79405 7.67475 4.76616C7.6535 4.73826 7.62613 4.71562 7.59475 4.69997C7.56337 4.68432 7.52882 4.67608 7.49375 4.67588H5.95833V3.43838C5.96973 3.32493 6.02301 3.21981 6.10776 3.14353C6.19251 3.06726 6.30265 3.02531 6.41667 3.02588H7.5625C7.62328 3.02588 7.68157 3.00173 7.72454 2.95876C7.76752 2.91578 7.79167 2.85749 7.79167 2.79671V1.60505Z" fill="white"/>
</svg>
