<svg width="28" height="25" viewBox="0 0 28 25" fill="none" xmlns="http://www.w3.org/2000/svg">
<path d="M2.77778 2.77778V22.2222H25V2.77778H2.77778ZM1.38889 0H26.3889C26.7572 0 27.1105 0.146329 27.371 0.406796C27.6314 0.667263 27.7778 1.02053 27.7778 1.38889V23.6111C27.7778 23.9795 27.6314 24.3327 27.371 24.5932C27.1105 24.8537 26.7572 25 26.3889 25H1.38889C1.02053 25 0.667263 24.8537 0.406796 24.5932C0.146329 24.3327 0 23.9795 0 23.6111V1.38889C0 1.02053 0.146329 0.667263 0.406796 0.406796C0.667263 0.146329 1.02053 0 1.38889 0ZM17.7681 9.43472L15.2778 6.94444H22.2222V13.8889L19.7319 11.3986L14.3653 16.7653L11.4194 13.8194L7.49028 17.7472L5.52639 15.7833L11.4194 9.89028L14.3653 12.8375L17.7681 9.43472Z" fill="#F25822"/>
</svg>
