<svg width="17" height="23" viewBox="0 0 17 23" fill="none" xmlns="http://www.w3.org/2000/svg">
<path d="M7.57291 22.9583C7.45213 22.9581 7.33229 22.937 7.21875 22.8958C6.99973 22.8156 6.81397 22.6642 6.6912 22.4659C6.56844 22.2676 6.51578 22.0338 6.54166 21.802L7.34375 14.4166H1.20833C1.01909 14.4169 0.833349 14.3656 0.671053 14.2683C0.508758 14.171 0.376039 14.0313 0.287152 13.8642C0.198266 13.6972 0.156569 13.509 0.16654 13.3201C0.176511 13.1311 0.237773 12.9484 0.343747 12.7916L8.5625 0.499938C8.69248 0.307582 8.883 0.164162 9.1038 0.0924479C9.32461 0.020734 9.56304 0.0248367 9.78125 0.104105C9.99102 0.181983 10.1701 0.325339 10.2921 0.512949C10.414 0.700559 10.4723 0.92245 10.4583 1.14577L9.65625 8.58327H15.7917C15.9809 8.58299 16.1666 8.63426 16.3289 8.73158C16.4912 8.8289 16.624 8.96859 16.7128 9.13566C16.8017 9.30272 16.8434 9.49085 16.8335 9.67982C16.8235 9.8688 16.7622 10.0515 16.6562 10.2083L8.4375 22.4999C8.34194 22.6413 8.21313 22.757 8.06237 22.8369C7.91162 22.9169 7.74354 22.9585 7.57291 22.9583ZM3.15625 12.3333H8.5C8.64535 12.3336 8.78903 12.3644 8.92179 12.4236C9.05454 12.4828 9.17344 12.5691 9.27083 12.677C9.36913 12.7864 9.44316 12.9153 9.48804 13.0554C9.53293 13.1954 9.54765 13.3434 9.53125 13.4895L9.0625 17.8124L13.8437 10.6666H8.5C8.353 10.6675 8.20749 10.6373 8.07301 10.5779C7.93853 10.5185 7.81814 10.4314 7.71975 10.3222C7.62137 10.213 7.5472 10.0842 7.50215 9.94425C7.45709 9.80433 7.44216 9.65646 7.45833 9.51035L7.92708 5.18744L3.15625 12.3333Z" fill="#149211"/>
</svg>
