<svg width="11" height="11" viewBox="0 0 11 11" fill="none" xmlns="http://www.w3.org/2000/svg">
<path d="M6.94376 3.84999C6.59247 3.84879 6.2444 3.91686 5.91944 4.05032C5.59449 4.18378 5.29904 4.38 5.05001 4.62776C4.80097 4.87552 4.60323 5.16996 4.4681 5.49422C4.33298 5.81848 4.26311 6.1662 4.26251 6.51749V9.21249C4.26251 9.32189 4.30597 9.42682 4.38333 9.50417C4.46069 9.58153 4.56561 9.62499 4.67501 9.62499H5.63751C5.74691 9.62499 5.85183 9.58153 5.92919 9.50417C6.00655 9.42682 6.05001 9.32189 6.05001 9.21249V6.51749C6.04992 6.39255 6.07616 6.26899 6.12703 6.15487C6.17789 6.04075 6.25223 5.93863 6.34521 5.85517C6.43818 5.77171 6.5477 5.70878 6.66663 5.67048C6.78556 5.63219 6.91122 5.61938 7.03543 5.63291C7.25818 5.66097 7.46289 5.7698 7.61074 5.93876C7.75858 6.10772 7.83927 6.32507 7.83751 6.54958V9.21249C7.83751 9.32189 7.88097 9.42682 7.95833 9.50417C8.03569 9.58153 8.14061 9.62499 8.25001 9.62499H9.21251C9.32191 9.62499 9.42684 9.58153 9.50419 9.50417C9.58155 9.42682 9.62501 9.32189 9.62501 9.21249V6.51749C9.62441 6.1662 9.55455 5.81848 9.41942 5.49422C9.28429 5.16996 9.08656 4.87552 8.83752 4.62776C8.58848 4.38 8.29303 4.18378 7.96808 4.05032C7.64313 3.91686 7.29505 3.84879 6.94376 3.84999Z" fill="#AAAAAA"/>
<path d="M3.025 4.26245H1.7875C1.55968 4.26245 1.375 4.44713 1.375 4.67495V9.21245C1.375 9.44027 1.55968 9.62495 1.7875 9.62495H3.025C3.25282 9.62495 3.4375 9.44027 3.4375 9.21245V4.67495C3.4375 4.44713 3.25282 4.26245 3.025 4.26245Z" fill="#AAAAAA"/>
<path d="M2.40625 3.4375C2.97579 3.4375 3.4375 2.97579 3.4375 2.40625C3.4375 1.83671 2.97579 1.375 2.40625 1.375C1.83671 1.375 1.375 1.83671 1.375 2.40625C1.375 2.97579 1.83671 3.4375 2.40625 3.4375Z" fill="#AAAAAA"/>
</svg>
