<svg width="25" height="25" viewBox="0 0 25 25" fill="none" xmlns="http://www.w3.org/2000/svg">
<path d="M13.4063 22.9167C12.9032 22.9162 12.4206 22.7179 12.0625 22.3646L5.38542 15.6771C5.21408 15.5068 5.10729 15.2822 5.08334 15.0417L4.16667 5.30215C4.15264 5.14958 4.17244 4.99579 4.22465 4.85175C4.27687 4.7077 4.36021 4.57695 4.46875 4.46881C4.57689 4.36028 4.70764 4.27693 4.85169 4.22471C4.99573 4.1725 5.14952 4.1527 5.30209 4.16673L15.0417 5.0834C15.2821 5.10735 15.5067 5.21414 15.6771 5.38548L22.3646 12.0626C22.7189 12.4179 22.9179 12.8993 22.9179 13.4011C22.9179 13.9029 22.7189 14.3843 22.3646 14.7396L14.7396 22.3646C14.3853 22.7173 13.9061 22.9157 13.4063 22.9167ZM7.15625 14.4688L13.4063 20.7188L20.75 13.3751L14.5 7.12506L6.36459 6.36465L7.15625 14.4688Z" fill="#FFC700"/>
<path d="M10.9375 12.5C11.8004 12.5 12.5 11.8004 12.5 10.9375C12.5 10.0746 11.8004 9.375 10.9375 9.375C10.0746 9.375 9.375 10.0746 9.375 10.9375C9.375 11.8004 10.0746 12.5 10.9375 12.5Z" fill="#FFC700"/>
</svg>
